
<svg
   xmlns="http://www.w3.org/2000/svg"
   viewBox="0 0 1122.5197 377.95279"
   height="377.95279"
   width="1122.5197"
   xml:space="preserve"
   id="svg2"
   version="1.1"><defs
     id="defs6" /><g
     transform="matrix(1.3333333,0,0,-1.3333333,0,377.9528)"
     id="g10"><g
       id="g12"><path
         id="path14"
         style="fill:#373535;fill-opacity:1;fill-rule:evenodd;stroke:none"
         d="m 155.4129,164.7023 c 0,-6.2323 -1.1759,-12.0237 -3.5278,-17.3741 -2.3516,-5.3504 -5.5562,-9.9953 -9.6128,-13.9346 -4.057,-3.9393 -8.7313,-7.0554 -14.0227,-9.3484 -5.2917,-2.2929 -10.9361,-3.4395 -16.9333,-3.4395 -6.2323,0 -12.0235,1.1466 -17.3742,3.4395 -5.3504,2.293 -9.9949,5.4091 -13.9342,9.3484 -3.9393,3.9393 -7.0557,8.5842 -9.3487,13.9346 -2.2929,5.3504 -3.4395,11.1418 -3.4395,17.3741 v 57.3256 h 8.8194 v -30.8676 h 23.8121 v -8.8194 H 76.0391 v -17.6386 c 0,-4.8212 0.9408,-9.3779 2.8222,-13.6698 1.8813,-4.2922 4.4095,-8.0258 7.5846,-11.2006 3.1748,-3.175 6.9083,-5.7033 11.2006,-7.5846 4.2919,-1.8817 8.8486,-2.8222 13.6698,-2.8222 4.8214,0 9.3778,0.9405 13.67,2.8222 4.292,1.8813 8.0255,4.4096 11.2006,7.5846 3.1748,3.1748 5.703,6.9084 7.5846,11.2006 1.8814,4.2919 2.8222,8.8486 2.8222,13.6698 z m 607.9705,44.0966 c 5.997,0 11.6413,-1.1464 16.933,-3.4396 5.2918,-2.2929 9.9658,-5.4091 14.0227,-9.3484 4.057,-3.9393 7.2613,-8.6136 9.6132,-14.0227 2.3519,-5.4091 3.5277,-11.171 3.5277,-17.2859 0,-6.2323 -1.1758,-12.0237 -3.5277,-17.3741 -2.3519,-5.3504 -5.5562,-9.9953 -9.6132,-13.9346 -4.0569,-3.9393 -8.7309,-7.0554 -14.0227,-9.3484 -5.2917,-2.2929 -10.936,-3.4395 -16.933,-3.4395 -6.2323,0 -12.0237,1.1466 -17.3741,3.4395 -5.3504,2.293 -9.9953,5.4091 -13.9346,9.3484 -3.9393,3.9393 -7.0554,8.5842 -9.3483,13.9346 -2.2933,5.3504 -3.4396,11.1418 -3.4396,17.3741 0,6.1149 1.1463,11.8768 3.4396,17.2859 2.2929,5.4091 5.409,10.0834 9.3483,14.0227 3.9393,3.9393 8.5842,7.0555 13.9346,9.3484 5.3504,2.2932 11.1418,3.4396 17.3741,3.4396 z m 0,-79.3738 c 4.8212,0 9.3779,0.9405 13.6698,2.8222 4.2922,1.8813 8.0257,4.4096 11.2005,7.5846 3.1751,3.1748 5.7033,6.9084 7.5847,11.2006 1.8816,4.2919 2.8222,8.8486 2.8222,13.6698 0,4.8211 -0.9406,9.3778 -2.8222,13.67 -1.8814,4.292 -4.4096,8.0255 -7.5847,11.2006 -3.1748,3.1748 -6.9083,5.703 -11.2005,7.5846 -4.2919,1.8814 -8.8486,2.8222 -13.6698,2.8222 -4.8212,0 -9.3779,-0.9408 -13.6701,-2.8222 -4.2919,-1.8816 -8.0254,-4.4098 -11.2005,-7.5846 -3.1748,-3.1751 -5.703,-6.9086 -7.5847,-11.2006 -1.8813,-4.2922 -2.8221,-8.8489 -2.8221,-13.67 0,-4.8212 0.9408,-9.3779 2.8221,-13.6698 1.8817,-4.2922 4.4099,-8.0258 7.5847,-11.2006 3.1751,-3.175 6.9086,-5.7033 11.2005,-7.5846 4.2922,-1.8817 8.8489,-2.8222 13.6701,-2.8222 z m -57.2553,-8.8194 h -8.8194 v 104.068 h 8.8194 z m -21.9779,0 h -8.8194 v 88.1932 h 8.8194 z m 0,95.2486 h -8.8194 v 8.8194 h 8.8194 z m -66.0747,-95.2486 c -6.2323,0 -12.0234,1.1466 -17.3738,3.4395 -5.3504,2.293 -9.9953,5.4091 -13.9346,9.3484 -3.9393,3.9393 -7.0554,8.5842 -9.3486,13.9346 -2.293,5.3504 -3.4396,11.1418 -3.4396,17.3741 v 44.0966 h 8.8194 v -44.0966 c 0,-4.8212 0.9408,-9.3779 2.8222,-13.6698 1.8814,-4.2922 4.4096,-8.0258 7.5847,-11.2006 3.1748,-3.175 6.9083,-5.7033 11.2005,-7.5846 4.2919,-1.8817 8.8486,-2.8222 13.6698,-2.8222 4.8214,0 9.3781,0.9405 13.6701,2.8222 4.2919,1.8813 8.0254,4.4096 11.2005,7.5846 3.1751,3.1748 5.703,6.9084 7.5847,11.2006 1.8813,4.2919 2.8221,8.8486 2.8221,13.6698 v 44.0966 h 8.8195 v -44.0966 c 0,-6.2323 -1.1761,-12.0237 -3.5277,-17.3741 -2.3519,-5.3504 -5.5562,-9.9953 -9.6132,-13.9346 -4.0569,-3.9393 -8.7312,-7.0554 -14.0227,-9.3484 -5.2917,-2.2929 -10.936,-3.4395 -16.9333,-3.4395 z m -101.3516,0 c -6.2326,0 -12.0237,1.1466 -17.3741,3.4395 -5.3504,2.293 -9.9953,5.4091 -13.9346,9.3484 -3.9393,3.9393 -7.0554,8.5842 -9.3486,13.9346 -2.293,5.3504 -3.4393,11.1418 -3.4393,17.3741 0,6.1149 1.1463,11.8768 3.4393,17.2859 2.2932,5.4091 5.4093,10.0834 9.3486,14.0227 3.9393,3.9393 8.5842,7.0555 13.9346,9.3484 5.3504,2.2932 11.1415,3.4396 17.3741,3.4396 5.997,0 11.6413,-1.1464 16.933,-3.4396 5.2914,-2.2929 9.9658,-5.4091 14.0227,-9.3484 4.057,-3.9393 7.2613,-8.6136 9.6132,-14.0227 2.3516,-5.4091 3.5277,-11.171 3.5277,-17.2859 v -59.9715 h -8.8195 v 33.5135 c -3.9979,-5.2915 -9.1133,-9.5542 -15.3456,-12.788 -6.2323,-3.2337 -12.8761,-4.8506 -19.9315,-4.8506 z m 0,79.374 c -4.8215,0 -9.3779,-0.9408 -13.6701,-2.8222 -4.2919,-1.8816 -8.0255,-4.4098 -11.2005,-7.5846 -3.1751,-3.1751 -5.7031,-6.9086 -7.5847,-11.2006 -1.8814,-4.2922 -2.8222,-8.8489 -2.8222,-13.67 0,-4.8212 0.9408,-9.3779 2.8222,-13.6698 1.8816,-4.2922 4.4096,-8.0258 7.5847,-11.2006 3.175,-3.175 6.9086,-5.7033 11.2005,-7.5846 4.2922,-1.8817 8.8486,-2.8222 13.6701,-2.8222 4.8211,0 9.3778,0.9405 13.6698,2.8222 4.2922,1.8813 8.0257,4.4096 11.2005,7.5846 3.1751,3.1748 5.7033,6.9084 7.5847,11.2006 1.8813,4.2919 2.8221,8.8486 2.8221,13.6698 0,4.8211 -0.9408,9.3778 -2.8221,13.67 -1.8814,4.292 -4.4096,8.0255 -7.5847,11.2006 -3.1748,3.1748 -6.9083,5.703 -11.2005,7.5846 -4.292,1.8814 -8.8487,2.8222 -13.6698,2.8222 z m -101.3519,8.8192 c 5.9969,0 11.6413,-1.1758 16.933,-3.5278 5.2917,-2.3516 9.9658,-5.5561 14.0227,-9.6131 4.057,-4.0566 7.2612,-8.731 9.6132,-14.0227 2.3519,-5.2914 3.5277,-10.9358 3.5277,-16.933 v -44.0966 h -8.8195 v 44.0966 c 0,4.8211 -0.9405,9.3778 -2.8221,13.67 -1.8814,4.292 -4.4096,8.0255 -7.5847,11.2006 -3.1748,3.1748 -6.9083,5.703 -11.2005,7.5846 -4.292,1.8814 -8.8487,2.8222 -13.6698,2.8222 -4.8212,0 -9.3779,-0.9408 -13.6701,-2.8222 -4.2919,-1.8816 -8.0255,-4.4098 -11.2005,-7.5846 -3.1748,-3.1751 -5.7031,-6.9086 -7.5847,-11.2006 -1.8814,-4.2922 -2.8222,-8.8489 -2.8222,-13.67 v -44.0966 h -8.8191 v 44.0966 c 0,5.9972 1.1463,11.6416 3.4395,16.933 2.293,5.2917 5.4091,9.9661 9.3484,14.0227 3.9393,4.057 8.5842,7.2615 13.9346,9.6131 5.3504,2.352 11.1418,3.5278 17.3741,3.5278 z m -101.3519,0 c 6.1146,0 11.8766,-1.1464 17.2859,-3.4396 5.4091,-2.2929 10.0834,-5.4091 14.0227,-9.3484 3.9393,-3.9393 7.0555,-8.6136 9.3484,-14.0227 2.2929,-5.4091 3.4396,-11.171 3.4396,-17.2859 v -44.0966 h -8.8195 v 17.6386 c -3.998,-5.2915 -9.1131,-9.5542 -15.3453,-12.788 -6.2326,-3.2337 -12.8764,-4.8506 -19.9318,-4.8506 -6.2323,0 -12.0238,1.1466 -17.3741,3.4395 -5.3504,2.293 -9.9953,5.4091 -13.9346,9.3484 -3.9393,3.9393 -7.0554,8.5842 -9.3484,13.9346 -2.2929,5.3504 -3.4395,11.1418 -3.4395,17.3741 0,6.1149 1.1466,11.8768 3.4395,17.2859 2.293,5.4091 5.4091,10.0834 9.3484,14.0227 3.9393,3.9393 8.5842,7.0555 13.9346,9.3484 5.3503,2.2932 11.1418,3.4396 17.3741,3.4396 z m 0,-79.3738 c 4.8211,0 9.3778,0.9405 13.67,2.8222 4.292,1.8813 8.0255,4.4096 11.2006,7.5846 3.1748,3.1748 5.703,6.9084 7.5844,11.2006 1.8816,4.2919 2.8221,8.8486 2.8221,13.6698 0,4.8211 -0.9405,9.3778 -2.8221,13.67 -1.8814,4.292 -4.4096,8.0255 -7.5844,11.2006 -3.1751,3.1748 -6.9086,5.703 -11.2006,7.5846 -4.2922,1.8814 -8.8489,2.8222 -13.67,2.8222 -4.8212,0 -9.3779,-0.9408 -13.6701,-2.8222 -4.292,-1.8816 -8.0255,-4.4098 -11.2006,-7.5846 -3.1748,-3.1751 -5.703,-6.9086 -7.5843,-11.2006 -1.8817,-4.2922 -2.8222,-8.8489 -2.8222,-13.67 0,-4.8212 0.9405,-9.3779 2.8222,-13.6698 1.8813,-4.2922 4.4095,-8.0258 7.5843,-11.2006 3.1751,-3.175 6.9086,-5.7033 11.2006,-7.5846 4.2922,-1.8817 8.8489,-2.8222 13.6701,-2.8222 z m -101.3519,79.3738 c 5.9972,0 11.6416,-1.1464 16.933,-3.4396 5.2917,-2.2929 9.966,-5.4091 14.0227,-9.3484 4.057,-3.9393 7.2615,-8.6136 9.6131,-14.0227 2.3519,-5.4091 3.5278,-11.171 3.5278,-17.2859 h -8.8192 c 0,4.8211 -0.9408,9.3778 -2.8222,13.67 -1.8816,4.292 -4.4098,8.0255 -7.5846,11.2006 -3.1751,3.1748 -6.9086,5.703 -11.2006,7.5846 -4.2922,1.8814 -8.8489,2.8222 -13.67,2.8222 -4.8212,0 -9.3779,-0.9408 -13.6698,-2.8222 -4.2923,-1.8816 -8.0258,-4.4098 -11.2006,-7.5846 -3.1751,-3.1751 -5.7033,-6.9086 -7.5846,-11.2006 -1.8817,-4.2922 -2.8222,-8.8489 -2.8222,-13.67 v -44.0966 h -8.8194 v 44.0966 c 0,6.1149 1.1466,11.8768 3.4395,17.2859 2.293,5.4091 5.4091,10.0834 9.3484,14.0227 3.9393,3.9393 8.5842,7.0555 13.9345,9.3484 5.3504,2.2932 11.1419,3.4396 17.3742,3.4396" /><path
         id="path16"
         style="fill:#373535;fill-opacity:1;fill-rule:evenodd;stroke:none"
         d="m 251.6003,86.7427 h -9.0045 v -4.7886 h 9.0045 c 0.6945,0 1.1665,0.1001 1.4222,0.2999 0.2554,0.2002 0.3832,0.5556 0.3832,1.0667 v 2.0722 c 0,0.4997 -0.1278,0.8498 -0.3832,1.0496 -0.2557,0.2001 -0.7277,0.3002 -1.4222,0.3002 z M 622.04,72.5162 v 17.204 h 17.6151 v -2.9276 h -13.6097 v -3.8441 h 7.9435 v -2.9273 h -7.9435 v -4.2664 h 13.7707 v -3.2386 z m 6.5106,19.0258 3.322,5.6328 h 3.6107 L 630.6837,91.542 Z M 581.0845,72.5162 v 17.204 h 17.3982 V 86.7093 H 585.0896 V 82.182 h 7.2436 v -3.1388 h -7.2436 v -6.527 z m -39.8835,6.8661 h 7.5325 l -3.7108,6.9993 z m -7.6994,-6.8661 9.7324,17.204 h 3.8552 l 9.8657,-17.204 h -4.4941 l -2.0664,3.7553 H 539.49 l -1.9998,-3.7553 z M 506.5223,86.6426 H 495.7345 V 75.7548 h 10.7878 v 3.6941 l 4.0053,-0.8277 v -2.0387 c 0,-1.5721 -0.2945,-2.6442 -0.8889,-3.2108 -0.5888,-0.572 -1.7164,-0.8555 -3.3775,-0.8555 h -10.2657 c -1.6718,0 -2.7995,0.2835 -3.3885,0.8555 -0.5831,0.5666 -0.8776,1.6387 -0.8776,3.2108 v 9.0658 c 0,1.5664 0.2945,2.6331 0.8776,3.2108 0.589,0.572 1.7167,0.8611 3.3885,0.8611 h 10.2657 c 1.6611,0 2.7887,-0.2891 3.3775,-0.8611 0.5944,-0.5777 0.8889,-1.6444 0.8889,-3.2108 v -1.6277 l -4.0053,-0.6333 z m -94.1545,-0.9943 c 0,1.5664 0.2945,2.6331 0.8776,3.2108 0.5891,0.572 1.7167,0.8611 3.3886,0.8611 h 12.6544 c 1.6719,0 2.7998,-0.2891 3.3885,-0.8611 0.5834,-0.5777 0.8776,-1.6444 0.8776,-3.2108 v -9.0658 c 0,-1.5721 -0.2942,-2.6442 -0.8776,-3.2108 -0.5887,-0.572 -1.7166,-0.8555 -3.3885,-0.8555 H 416.634 c -1.6719,0 -2.7995,0.2835 -3.3886,0.8555 -0.5831,0.5666 -0.8776,1.6387 -0.8776,3.2108 z m 4.0051,-9.8935 h 13.1933 V 86.6426 H 416.3729 Z M 381.3058,86.6426 V 72.5162 h -4.0054 v 14.1264 h -7.8936 v 3.0776 h 19.8258 v -3.0776 z m -38.6672,0.0667 h -11.26 v -3.6942 h 10.7212 c 1.6832,0 2.8219,-0.2888 3.4106,-0.8608 0.5945,-0.5777 0.889,-1.6444 0.889,-3.2108 v -2.361 c 0,-1.5611 -0.2945,-2.6274 -0.889,-3.2051 -0.5887,-0.5724 -1.7274,-0.8612 -3.4106,-0.8612 h -10.6212 c -1.6832,0 -2.8218,0.2888 -3.4106,0.8612 -0.5944,0.5777 -0.8889,1.644 -0.8889,3.2051 v 0.4722 l 3.5328,0.7334 v -2.0333 h 12.1544 v 3.9217 h -10.7209 c -1.6722,0 -2.7998,0.2889 -3.3886,0.8612 -0.5834,0.5777 -0.8779,1.6443 -0.8779,3.2108 v 1.8998 c 0,1.5664 0.2945,2.6331 0.8779,3.2108 0.5888,0.572 1.7164,0.8611 3.3886,0.8611 h 9.7599 c 1.6166,0 2.7329,-0.2781 3.3441,-0.828 0.6165,-0.5553 0.9221,-1.5386 0.9221,-2.9494 V 85.587 l -3.5329,-0.8331 z M 283.9791,72.5162 v 17.204 h 17.6147 v -2.9276 h -13.6094 v -3.8441 h 7.9435 v -2.9273 h -7.9435 v -4.2664 h 13.7707 v -3.2386 z m -45.3218,0 v 17.204 h 14.7152 c 1.3663,0 2.3551,-0.2613 2.9719,-0.7889 0.6108,-0.5278 0.9164,-1.3776 0.9164,-2.5443 v -4.0439 c 0,-1.1611 -0.3056,-2.0053 -0.9164,-2.5331 -0.6168,-0.5332 -1.6056,-0.7999 -2.9719,-0.7999 h -2.2444 l 7.9381,-6.4939 h -5.7438 l -6.9327,6.4939 h -3.7939 v -6.4939 z" /></g></g></svg>